<svg width="72" height="72" viewBox="0 0 72 72" fill="none" xmlns="http://www.w3.org/2000/svg">
<path d="M13.5 47.25V45H9V47.25C9 51.4272 10.6594 55.4332 13.6131 58.3869C16.5668 61.3406 20.5728 63 24.75 63H31.5V58.5H24.75C21.7663 58.5 18.9048 57.3147 16.795 55.205C14.6853 53.0952 13.5 50.2337 13.5 47.25ZM54 24.75V27H58.5V24.75C58.5 20.5728 56.8406 16.5668 53.8869 13.6131C50.9332 10.6594 46.9272 9 42.75 9H36V13.5H42.75C44.2274 13.5 45.6903 13.791 47.0552 14.3564C48.4201 14.9217 49.6603 15.7504 50.705 16.7951C51.7496 17.8397 52.5783 19.0799 53.1436 20.4448C53.709 21.8097 54 23.2726 54 24.75ZM24.75 24.75H11.25C9.45979 24.75 7.7429 25.4612 6.47703 26.727C5.21116 27.9929 4.5 29.7098 4.5 31.5V36H9V31.5C9 30.9033 9.23705 30.331 9.65901 29.909C10.081 29.4871 10.6533 29.25 11.25 29.25H24.75C25.3467 29.25 25.919 29.4871 26.341 29.909C26.7629 30.331 27 30.9033 27 31.5V36H31.5V31.5C31.5 29.7098 30.7888 27.9929 29.523 26.727C28.2571 25.4612 26.5402 24.75 24.75 24.75ZM18 22.5C19.78 22.5 21.5201 21.9722 23.0001 20.9832C24.4802 19.9943 25.6337 18.5887 26.3149 16.9442C26.9961 15.2996 27.1743 13.49 26.8271 11.7442C26.4798 9.99836 25.6226 8.39472 24.364 7.13604C23.1053 5.87737 21.5016 5.0202 19.7558 4.67294C18.01 4.32567 16.2004 4.5039 14.5558 5.18509C12.9113 5.86628 11.5057 7.01983 10.5168 8.49987C9.52784 9.97991 9 11.72 9 13.5C9 15.887 9.94821 18.1761 11.636 19.864C13.3239 21.5518 15.6131 22.5 18 22.5ZM18 9C18.89 9 19.76 9.26392 20.5001 9.75839C21.2401 10.2529 21.8169 10.9557 22.1575 11.7779C22.4981 12.6002 22.5872 13.505 22.4135 14.3779C22.2399 15.2508 21.8113 16.0526 21.182 16.682C20.5526 17.3113 19.7508 17.7399 18.8779 17.9135C18.005 18.0872 17.1002 17.9981 16.2779 17.6575C15.4557 17.3169 14.7529 16.7401 14.2584 16.0001C13.7639 15.26 13.5 14.39 13.5 13.5C13.5 12.3065 13.9741 11.1619 14.818 10.318C15.6619 9.47411 16.8065 9 18 9ZM60.75 56.25H47.25C45.4598 56.25 43.7429 56.9612 42.477 58.227C41.2112 59.4929 40.5 61.2098 40.5 63V67.5H45V63C45 62.4033 45.2371 61.831 45.659 61.409C46.081 60.9871 46.6533 60.75 47.25 60.75H60.75C61.3467 60.75 61.919 60.9871 62.341 61.409C62.7629 61.831 63 62.4033 63 63V67.5H67.5V63C67.5 61.2098 66.7888 59.4929 65.523 58.227C64.2571 56.9612 62.5402 56.25 60.75 56.25ZM45 45C45 46.78 45.5278 48.5201 46.5168 50.0001C47.5057 51.4802 48.9113 52.6337 50.5559 53.3149C52.2004 53.9961 54.01 54.1743 55.7558 53.8271C57.5016 53.4798 59.1053 52.6226 60.364 51.364C61.6226 50.1053 62.4798 48.5016 62.8271 46.7558C63.1743 45.01 62.9961 43.2004 62.3149 41.5559C61.6337 39.9113 60.4802 38.5057 59.0001 37.5168C57.5201 36.5278 55.78 36 54 36C51.6131 36 49.3239 36.9482 47.636 38.636C45.9482 40.3239 45 42.6131 45 45ZM58.5 45C58.5 45.89 58.2361 46.7601 57.7416 47.5001C57.2471 48.2401 56.5443 48.8169 55.7221 49.1575C54.8998 49.4981 53.995 49.5872 53.1221 49.4135C52.2492 49.2399 51.4474 48.8113 50.818 48.182C50.1887 47.5526 49.7601 46.7508 49.5865 45.8779C49.4128 45.005 49.5019 44.1002 49.8425 43.2779C50.1831 42.4557 50.7599 41.7529 51.4999 41.2584C52.24 40.7639 53.11 40.5 54 40.5C55.1935 40.5 56.3381 40.9741 57.182 41.818C58.0259 42.6619 58.5 43.8065 58.5 45Z" fill="#0094FF"/>
</svg>
